<mxfile host="app.diagrams.net" modified="2024-05-01T14:50:04.540Z" agent="Mozilla/5.0 (Windows NT 10.0; Win64; x64) AppleWebKit/537.36 (KHTML, like Gecko) Chrome/124.0.0.0 Safari/537.36" version="24.2.8" etag="rwlWcNWu6B9kOyzDwKkE" type="github">
  <diagram name="Page-1" id="NmErsGtCKULslVanZHI1">
    <mxGraphModel>
      <root>
        <mxCell id="0" />
        <mxCell id="1" parent="0" />
      </root>
    </mxGraphModel>
  </diagram>
</mxfile>
